# xmcd
#
# Track frame offsets:
#	150
#	14890
#	29462
#	40305
#	52347
#	65222
#	79895
#	91887
#	109757
#	121117
#	129955
#	143620
#
# Disc length: 2100 seconds
#
# Revision: 0
# Processed by: cddbd v1.4PL0 Copyright (c) Steve Scherf et al.
# Submitted via: audiograbber 1.81.01
#
DISCID=aa08320c
DTITLE=RAFFAELLA CARRA' - GRANDI SUCCESSI ORIGINALI CD1
DYEAR=1900
DGENRE=POP
TTITLE0=MA CHE MUSICA MAESTRO
TTITLE1=PENSAMI
TTITLE2=CHI SA CHI SEI
TTITLE3=DUDULALA
TTITLE4=CHI SA SE VA
TTITLE5=TOP
TTITLE6=TUCA TUCA
TTITLE7=ACCIDENTI A QUELLA SERA
TTITLE8=DOMENICA NON E (HUN A SONG)
TTITLE9=PERDONO NON LO FACCIO PIU'
TTITLE10=TI AMMAZZEREI
TTITLE11=I SAY A LITTLE
EXTD=
EXTT0=
EXTT1=
EXTT2=
EXTT3=
EXTT4=
EXTT5=
EXTT6=
EXTT7=
EXTT8=
EXTT9=
EXTT10=
EXTT11=
PLAYORDER=
